<svg width="140" height="25" viewBox="0 0 140 25" fill="none" xmlns="http://www.w3.org/2000/svg">
<path opacity="0.8" d="M139.159 7.84033V19.0003H135.719V16.9803C135.399 17.6337 134.919 18.1537 134.279 18.5403C133.652 18.927 132.919 19.1203 132.079 19.1203C130.799 19.1203 129.779 18.6937 129.019 17.8403C128.272 16.987 127.899 15.8137 127.899 14.3203V7.84033H131.299V13.9003C131.299 14.6603 131.492 15.2537 131.879 15.6803C132.279 16.0937 132.812 16.3003 133.479 16.3003C134.172 16.3003 134.719 16.0803 135.119 15.6403C135.519 15.2003 135.719 14.5737 135.719 13.7603V7.84033H139.159Z" fill="white"/>
<path opacity="0.8" d="M122.787 9.94021C123.214 9.26021 123.761 8.72022 124.427 8.32021C125.107 7.92022 125.841 7.72021 126.627 7.72021V11.3802H125.647C124.741 11.3802 124.034 11.5735 123.527 11.9602C123.034 12.3469 122.787 13.0002 122.787 13.9202V19.0002H119.367V7.84021H122.787V9.94021Z" fill="white"/>
<path opacity="0.8" d="M117.01 7.84033V19.0003H113.57V16.9803C113.25 17.6337 112.77 18.1537 112.13 18.5403C111.504 18.927 110.77 19.1203 109.93 19.1203C108.65 19.1203 107.63 18.6937 106.87 17.8403C106.124 16.987 105.75 15.8137 105.75 14.3203V7.84033H109.15V13.9003C109.15 14.6603 109.344 15.2537 109.73 15.6803C110.13 16.0937 110.664 16.3003 111.33 16.3003C112.024 16.3003 112.57 16.0803 112.97 15.6403C113.37 15.2003 113.57 14.5737 113.57 13.7603V7.84033H117.01Z" fill="white"/>
<path opacity="0.8" d="M96.5958 7.7002C97.4491 7.7002 98.1824 7.89353 98.7958 8.2802C99.4091 8.66686 99.8624 9.19353 100.156 9.8602V7.84019H103.556V18.9402C103.556 19.9802 103.356 20.9135 102.956 21.7402C102.556 22.5802 101.942 23.2469 101.116 23.7402C100.289 24.2335 99.2624 24.4802 98.0358 24.4802C96.3558 24.4802 95.0091 24.0802 93.9958 23.2802C92.9958 22.4935 92.3958 21.4202 92.1958 20.0602H95.5758C95.6824 20.5135 95.9224 20.8669 96.2958 21.1202C96.6824 21.3735 97.1824 21.5002 97.7958 21.5002C98.5024 21.5002 99.0691 21.2935 99.4958 20.8802C99.9358 20.4802 100.156 19.8335 100.156 18.9402V16.9802C99.8624 17.6469 99.4091 18.1735 98.7958 18.5602C98.1824 18.9469 97.4491 19.1402 96.5958 19.1402C95.6758 19.1402 94.8491 18.9135 94.1158 18.4602C93.3958 17.9935 92.8224 17.3269 92.3958 16.4602C91.9824 15.5935 91.7758 14.5802 91.7758 13.4202C91.7758 12.2469 91.9824 11.2335 92.3958 10.3802C92.8224 9.51353 93.3958 8.85353 94.1158 8.4002C94.8491 7.93353 95.6758 7.7002 96.5958 7.7002ZM97.6958 10.7002C96.9624 10.7002 96.3691 10.9402 95.9158 11.4202C95.4758 11.9002 95.2558 12.5669 95.2558 13.4202C95.2558 14.2735 95.4758 14.9402 95.9158 15.4202C96.3691 15.9002 96.9624 16.1402 97.6958 16.1402C98.4158 16.1402 99.0024 15.8935 99.4558 15.4002C99.9224 14.9069 100.156 14.2469 100.156 13.4202C100.156 12.5802 99.9224 11.9202 99.4558 11.4402C99.0024 10.9469 98.4158 10.7002 97.6958 10.7002Z" fill="white"/>
<path opacity="0.8" d="M83.0411 7.7002C83.8944 7.7002 84.6277 7.89353 85.2411 8.2802C85.8544 8.66686 86.3011 9.19353 86.5811 9.8602V4.2002H90.0011V19.0002H86.5811V16.9802C86.3011 17.6469 85.8544 18.1735 85.2411 18.5602C84.6277 18.9469 83.8944 19.1402 83.0411 19.1402C82.1211 19.1402 81.2944 18.9135 80.5611 18.4602C79.8411 17.9935 79.2677 17.3269 78.8411 16.4602C78.4277 15.5935 78.2211 14.5802 78.2211 13.4202C78.2211 12.2469 78.4277 11.2335 78.8411 10.3802C79.2677 9.51353 79.8411 8.85353 80.5611 8.4002C81.2944 7.93353 82.1211 7.7002 83.0411 7.7002ZM84.1411 10.7002C83.4077 10.7002 82.8144 10.9402 82.3611 11.4202C81.9211 11.9002 81.7011 12.5669 81.7011 13.4202C81.7011 14.2735 81.9211 14.9402 82.3611 15.4202C82.8144 15.9002 83.4077 16.1402 84.1411 16.1402C84.8611 16.1402 85.4477 15.8935 85.9011 15.4002C86.3677 14.9069 86.6011 14.2469 86.6011 13.4202C86.6011 12.5802 86.3677 11.9202 85.9011 11.4402C85.4477 10.9469 84.8611 10.7002 84.1411 10.7002Z" fill="white"/>
<path opacity="0.8" d="M72.3655 7.72021C73.6455 7.72021 74.6588 8.14688 75.4055 9.00022C76.1655 9.85355 76.5455 11.0269 76.5455 12.5202V19.0002H73.1255V12.9202C73.1255 12.1735 72.9255 11.5935 72.5255 11.1802C72.1388 10.7535 71.6188 10.5402 70.9655 10.5402C70.2721 10.5402 69.7188 10.7602 69.3055 11.2002C68.9055 11.6402 68.7055 12.2669 68.7055 13.0802V19.0002H65.2855V7.84021H68.7055V9.88021C69.0255 9.21355 69.4988 8.68688 70.1255 8.30021C70.7655 7.91355 71.5121 7.72021 72.3655 7.72021Z" fill="white"/>
<path opacity="0.8" d="M55.9708 7.7002C56.8241 7.7002 57.5574 7.89353 58.1708 8.2802C58.7841 8.66686 59.2374 9.19353 59.5308 9.8602V7.84019H62.9308V19.0002H59.5308V16.9802C59.2374 17.6469 58.7841 18.1735 58.1708 18.5602C57.5574 18.9469 56.8241 19.1402 55.9708 19.1402C55.0508 19.1402 54.2241 18.9135 53.4908 18.4602C52.7708 17.9935 52.1974 17.3269 51.7708 16.4602C51.3574 15.5935 51.1508 14.5802 51.1508 13.4202C51.1508 12.2469 51.3574 11.2335 51.7708 10.3802C52.1974 9.51353 52.7708 8.85353 53.4908 8.4002C54.2241 7.93353 55.0508 7.7002 55.9708 7.7002ZM57.0708 10.7002C56.3374 10.7002 55.7441 10.9402 55.2908 11.4202C54.8508 11.9002 54.6308 12.5669 54.6308 13.4202C54.6308 14.2735 54.8508 14.9402 55.2908 15.4202C55.7441 15.9002 56.3374 16.1402 57.0708 16.1402C57.7908 16.1402 58.3774 15.8935 58.8308 15.4002C59.2974 14.9069 59.5308 14.2469 59.5308 13.4202C59.5308 12.5802 59.2974 11.9202 58.8308 11.4402C58.3774 10.9469 57.7908 10.7002 57.0708 10.7002Z" fill="white"/>
<path opacity="0.8" d="M45.6 16.3804H50.16V19.0004H42.18V4.86035H45.6V16.3804Z" fill="white"/>
<path fill-rule="evenodd" clip-rule="evenodd" d="M28.433 6.28764C28.4376 6.36938 28.4316 6.45238 28.4112 6.53582L26.5855 13.8681C26.4934 14.2371 26.1637 14.4973 25.7846 14.4995L14.8307 14.5549C14.8293 14.5549 14.828 14.5549 14.8265 14.5549H3.87255C3.49143 14.5549 3.15939 14.2939 3.0674 13.9227L1.24172 6.56247C1.22064 6.47731 1.21462 6.39173 1.21993 6.30787C0.513655 6.08467 0 5.42106 0 4.63918C0 3.67369 0.781697 2.88879 1.74264 2.88879C2.70359 2.88879 3.48529 3.67369 3.48529 4.63918C3.48529 5.18236 3.23731 5.66836 2.84905 5.99004L5.13475 8.30212C5.7125 8.88657 6.51407 9.22203 7.33413 9.22203C8.30388 9.22203 9.22841 8.75928 9.81063 7.98471L13.5671 2.98684C13.2515 2.67031 13.0561 2.23292 13.0561 1.7504C13.0561 0.785303 13.8378 0 14.7987 0C15.7597 0 16.5414 0.785303 16.5414 1.7504C16.5414 2.21832 16.3564 2.64279 16.0573 2.95717C16.0583 2.95847 16.0596 2.95976 16.0605 2.96104L19.7897 7.97268C20.3718 8.75456 21.2996 9.22203 22.2721 9.22203C23.0997 9.22203 23.878 8.8982 24.4632 8.31072L26.7633 6.00079C26.3669 5.67953 26.1122 5.18926 26.1122 4.63918C26.1122 3.67369 26.894 2.88879 27.8549 2.88879C28.8158 2.88879 29.5976 3.67369 29.5976 4.63918C29.5976 5.39998 29.1101 6.04767 28.433 6.28764ZM26.4073 17.1655C26.4073 16.7057 26.0358 16.3324 25.5775 16.3324H4.11231C3.65401 16.3324 3.28242 16.7057 3.28242 17.1655V19.1653C3.28242 19.6259 3.65401 19.9988 4.11231 19.9988H25.5775C26.0358 19.9988 26.4073 19.6259 26.4073 19.1653V17.1655Z" fill="white"/>
</svg>
